<mxfile host="app.diagrams.net" modified="2023-04-22T16:54:09.098Z" agent="Mozilla/5.0 (Windows NT 10.0; Win64; x64; rv:109.0) Gecko/20100101 Firefox/112.0" etag="EYLgG5HZy-KhrqFUApHq" version="21.2.1" type="device">
  <diagram id="R2lEEEUBdFMjLlhIrx00" name="Page-1">
    <mxGraphModel dx="1717" dy="881" grid="1" gridSize="10" guides="1" tooltips="1" connect="1" arrows="1" fold="1" page="1" pageScale="1" pageWidth="850" pageHeight="1100" math="0" shadow="0" extFonts="Permanent Marker^https://fonts.googleapis.com/css?family=Permanent+Marker">
      <root>
        <mxCell id="0" />
        <mxCell id="1" parent="0" />
        <mxCell id="hYk6tkEReeOIZ_yKNBXe-29" value="role" style="shape=table;startSize=30;container=1;collapsible=1;childLayout=tableLayout;fixedRows=1;rowLines=0;fontStyle=1;align=center;resizeLast=1;" vertex="1" parent="1">
          <mxGeometry x="520" y="300" width="350" height="180" as="geometry" />
        </mxCell>
        <mxCell id="hYk6tkEReeOIZ_yKNBXe-30" value="" style="shape=partialRectangle;collapsible=0;dropTarget=0;pointerEvents=0;fillColor=none;points=[[0,0.5],[1,0.5]];portConstraint=eastwest;top=0;left=0;right=0;bottom=1;" vertex="1" parent="hYk6tkEReeOIZ_yKNBXe-29">
          <mxGeometry y="30" width="350" height="30" as="geometry" />
        </mxCell>
        <mxCell id="hYk6tkEReeOIZ_yKNBXe-31" value="PK" style="shape=partialRectangle;overflow=hidden;connectable=0;fillColor=none;top=0;left=0;bottom=0;right=0;fontStyle=1;" vertex="1" parent="hYk6tkEReeOIZ_yKNBXe-30">
          <mxGeometry width="30" height="30" as="geometry">
            <mxRectangle width="30" height="30" as="alternateBounds" />
          </mxGeometry>
        </mxCell>
        <mxCell id="hYk6tkEReeOIZ_yKNBXe-32" value="role_key                INT UNSIGNED    NOT NULL" style="shape=partialRectangle;overflow=hidden;connectable=0;fillColor=none;top=0;left=0;bottom=0;right=0;align=left;spacingLeft=6;fontStyle=1;" vertex="1" parent="hYk6tkEReeOIZ_yKNBXe-30">
          <mxGeometry x="30" width="320" height="30" as="geometry">
            <mxRectangle width="320" height="30" as="alternateBounds" />
          </mxGeometry>
        </mxCell>
        <mxCell id="hYk6tkEReeOIZ_yKNBXe-33" value="" style="shape=partialRectangle;collapsible=0;dropTarget=0;pointerEvents=0;fillColor=none;points=[[0,0.5],[1,0.5]];portConstraint=eastwest;top=0;left=0;right=0;bottom=0;" vertex="1" parent="hYk6tkEReeOIZ_yKNBXe-29">
          <mxGeometry y="60" width="350" height="40" as="geometry" />
        </mxCell>
        <mxCell id="hYk6tkEReeOIZ_yKNBXe-34" value="FK1" style="shape=partialRectangle;overflow=hidden;connectable=0;fillColor=none;top=0;left=0;bottom=0;right=0;" vertex="1" parent="hYk6tkEReeOIZ_yKNBXe-33">
          <mxGeometry width="30" height="40" as="geometry">
            <mxRectangle width="30" height="40" as="alternateBounds" />
          </mxGeometry>
        </mxCell>
        <mxCell id="hYk6tkEReeOIZ_yKNBXe-35" value="app_key                   INT UNSIGNED    NOT NULL" style="shape=partialRectangle;overflow=hidden;connectable=0;fillColor=none;top=0;left=0;bottom=0;right=0;align=left;spacingLeft=6;" vertex="1" parent="hYk6tkEReeOIZ_yKNBXe-33">
          <mxGeometry x="30" width="320" height="40" as="geometry">
            <mxRectangle width="320" height="40" as="alternateBounds" />
          </mxGeometry>
        </mxCell>
        <mxCell id="hYk6tkEReeOIZ_yKNBXe-36" value="" style="shape=partialRectangle;collapsible=0;dropTarget=0;pointerEvents=0;fillColor=none;points=[[0,0.5],[1,0.5]];portConstraint=eastwest;top=0;left=0;right=0;bottom=0;" vertex="1" parent="hYk6tkEReeOIZ_yKNBXe-29">
          <mxGeometry y="100" width="350" height="40" as="geometry" />
        </mxCell>
        <mxCell id="hYk6tkEReeOIZ_yKNBXe-37" value="" style="shape=partialRectangle;overflow=hidden;connectable=0;fillColor=none;top=0;left=0;bottom=0;right=0;" vertex="1" parent="hYk6tkEReeOIZ_yKNBXe-36">
          <mxGeometry width="30" height="40" as="geometry">
            <mxRectangle width="30" height="40" as="alternateBounds" />
          </mxGeometry>
        </mxCell>
        <mxCell id="hYk6tkEReeOIZ_yKNBXe-38" value="role_name                VARCHAR(31)    NOT NULL UNIQUE" style="shape=partialRectangle;overflow=hidden;connectable=0;fillColor=none;top=0;left=0;bottom=0;right=0;align=left;spacingLeft=6;" vertex="1" parent="hYk6tkEReeOIZ_yKNBXe-36">
          <mxGeometry x="30" width="320" height="40" as="geometry">
            <mxRectangle width="320" height="40" as="alternateBounds" />
          </mxGeometry>
        </mxCell>
        <mxCell id="hYk6tkEReeOIZ_yKNBXe-39" value="" style="shape=partialRectangle;collapsible=0;dropTarget=0;pointerEvents=0;fillColor=none;points=[[0,0.5],[1,0.5]];portConstraint=eastwest;top=0;left=0;right=0;bottom=0;" vertex="1" parent="hYk6tkEReeOIZ_yKNBXe-29">
          <mxGeometry y="140" width="350" height="40" as="geometry" />
        </mxCell>
        <mxCell id="hYk6tkEReeOIZ_yKNBXe-40" value="" style="shape=partialRectangle;overflow=hidden;connectable=0;fillColor=none;top=0;left=0;bottom=0;right=0;" vertex="1" parent="hYk6tkEReeOIZ_yKNBXe-39">
          <mxGeometry width="30" height="40" as="geometry">
            <mxRectangle width="30" height="40" as="alternateBounds" />
          </mxGeometry>
        </mxCell>
        <mxCell id="hYk6tkEReeOIZ_yKNBXe-41" value="role_desc                VARCHAR(120)" style="shape=partialRectangle;overflow=hidden;connectable=0;fillColor=none;top=0;left=0;bottom=0;right=0;align=left;spacingLeft=6;" vertex="1" parent="hYk6tkEReeOIZ_yKNBXe-39">
          <mxGeometry x="30" width="320" height="40" as="geometry">
            <mxRectangle width="320" height="40" as="alternateBounds" />
          </mxGeometry>
        </mxCell>
        <mxCell id="hYk6tkEReeOIZ_yKNBXe-110" style="edgeStyle=orthogonalEdgeStyle;rounded=0;orthogonalLoop=1;jettySize=auto;html=1;entryX=0;entryY=0.5;entryDx=0;entryDy=0;exitX=0;exitY=0.5;exitDx=0;exitDy=0;endSize=12;startSize=12;startArrow=ERone;startFill=0;endArrow=ERzeroToMany;endFill=0;" edge="1" parent="1" source="hYk6tkEReeOIZ_yKNBXe-43" target="hYk6tkEReeOIZ_yKNBXe-33">
          <mxGeometry relative="1" as="geometry" />
        </mxCell>
        <mxCell id="hYk6tkEReeOIZ_yKNBXe-42" value="application" style="shape=table;startSize=30;container=1;collapsible=1;childLayout=tableLayout;fixedRows=1;rowLines=0;fontStyle=1;align=center;resizeLast=1;" vertex="1" parent="1">
          <mxGeometry x="520" y="60" width="350" height="140" as="geometry" />
        </mxCell>
        <mxCell id="hYk6tkEReeOIZ_yKNBXe-43" value="" style="shape=partialRectangle;collapsible=0;dropTarget=0;pointerEvents=0;fillColor=none;points=[[0,0.5],[1,0.5]];portConstraint=eastwest;top=0;left=0;right=0;bottom=1;" vertex="1" parent="hYk6tkEReeOIZ_yKNBXe-42">
          <mxGeometry y="30" width="350" height="30" as="geometry" />
        </mxCell>
        <mxCell id="hYk6tkEReeOIZ_yKNBXe-44" value="PK" style="shape=partialRectangle;overflow=hidden;connectable=0;fillColor=none;top=0;left=0;bottom=0;right=0;fontStyle=1;" vertex="1" parent="hYk6tkEReeOIZ_yKNBXe-43">
          <mxGeometry width="30" height="30" as="geometry">
            <mxRectangle width="30" height="30" as="alternateBounds" />
          </mxGeometry>
        </mxCell>
        <mxCell id="hYk6tkEReeOIZ_yKNBXe-45" value="app_key                INT UNSIGNED NOT NULL " style="shape=partialRectangle;overflow=hidden;connectable=0;fillColor=none;top=0;left=0;bottom=0;right=0;align=left;spacingLeft=6;fontStyle=1;" vertex="1" parent="hYk6tkEReeOIZ_yKNBXe-43">
          <mxGeometry x="30" width="320" height="30" as="geometry">
            <mxRectangle width="320" height="30" as="alternateBounds" />
          </mxGeometry>
        </mxCell>
        <mxCell id="hYk6tkEReeOIZ_yKNBXe-52" value="" style="shape=partialRectangle;collapsible=0;dropTarget=0;pointerEvents=0;fillColor=none;points=[[0,0.5],[1,0.5]];portConstraint=eastwest;top=0;left=0;right=0;bottom=0;" vertex="1" parent="hYk6tkEReeOIZ_yKNBXe-42">
          <mxGeometry y="60" width="350" height="40" as="geometry" />
        </mxCell>
        <mxCell id="hYk6tkEReeOIZ_yKNBXe-53" value="" style="shape=partialRectangle;overflow=hidden;connectable=0;fillColor=none;top=0;left=0;bottom=0;right=0;" vertex="1" parent="hYk6tkEReeOIZ_yKNBXe-52">
          <mxGeometry width="30" height="40" as="geometry">
            <mxRectangle width="30" height="40" as="alternateBounds" />
          </mxGeometry>
        </mxCell>
        <mxCell id="hYk6tkEReeOIZ_yKNBXe-54" value="app_name            VARCHAR(31)    NOT NULL UNIQUE" style="shape=partialRectangle;overflow=hidden;connectable=0;fillColor=none;top=0;left=0;bottom=0;right=0;align=left;spacingLeft=6;" vertex="1" parent="hYk6tkEReeOIZ_yKNBXe-52">
          <mxGeometry x="30" width="320" height="40" as="geometry">
            <mxRectangle width="320" height="40" as="alternateBounds" />
          </mxGeometry>
        </mxCell>
        <mxCell id="hYk6tkEReeOIZ_yKNBXe-114" value="" style="shape=partialRectangle;collapsible=0;dropTarget=0;pointerEvents=0;fillColor=none;points=[[0,0.5],[1,0.5]];portConstraint=eastwest;top=0;left=0;right=0;bottom=0;" vertex="1" parent="hYk6tkEReeOIZ_yKNBXe-42">
          <mxGeometry y="100" width="350" height="40" as="geometry" />
        </mxCell>
        <mxCell id="hYk6tkEReeOIZ_yKNBXe-115" value="" style="shape=partialRectangle;overflow=hidden;connectable=0;fillColor=none;top=0;left=0;bottom=0;right=0;" vertex="1" parent="hYk6tkEReeOIZ_yKNBXe-114">
          <mxGeometry width="30" height="40" as="geometry">
            <mxRectangle width="30" height="40" as="alternateBounds" />
          </mxGeometry>
        </mxCell>
        <mxCell id="hYk6tkEReeOIZ_yKNBXe-116" value="app_desc            VARCHAR(120)" style="shape=partialRectangle;overflow=hidden;connectable=0;fillColor=none;top=0;left=0;bottom=0;right=0;align=left;spacingLeft=6;" vertex="1" parent="hYk6tkEReeOIZ_yKNBXe-114">
          <mxGeometry x="30" width="320" height="40" as="geometry">
            <mxRectangle width="320" height="40" as="alternateBounds" />
          </mxGeometry>
        </mxCell>
        <mxCell id="hYk6tkEReeOIZ_yKNBXe-117" value="registration_type" style="shape=table;startSize=30;container=1;collapsible=1;childLayout=tableLayout;fixedRows=1;rowLines=0;fontStyle=1;align=center;resizeLast=1;" vertex="1" parent="1">
          <mxGeometry x="30" y="60" width="350" height="260" as="geometry" />
        </mxCell>
        <mxCell id="hYk6tkEReeOIZ_yKNBXe-118" value="" style="shape=partialRectangle;collapsible=0;dropTarget=0;pointerEvents=0;fillColor=none;points=[[0,0.5],[1,0.5]];portConstraint=eastwest;top=0;left=0;right=0;bottom=1;" vertex="1" parent="hYk6tkEReeOIZ_yKNBXe-117">
          <mxGeometry y="30" width="350" height="30" as="geometry" />
        </mxCell>
        <mxCell id="hYk6tkEReeOIZ_yKNBXe-119" value="PK" style="shape=partialRectangle;overflow=hidden;connectable=0;fillColor=none;top=0;left=0;bottom=0;right=0;fontStyle=1;" vertex="1" parent="hYk6tkEReeOIZ_yKNBXe-118">
          <mxGeometry width="30" height="30" as="geometry">
            <mxRectangle width="30" height="30" as="alternateBounds" />
          </mxGeometry>
        </mxCell>
        <mxCell id="hYk6tkEReeOIZ_yKNBXe-120" value="reg_type_key    INT UNSIGNED    NOT NULL" style="shape=partialRectangle;overflow=hidden;connectable=0;fillColor=none;top=0;left=0;bottom=0;right=0;align=left;spacingLeft=6;fontStyle=1;" vertex="1" parent="hYk6tkEReeOIZ_yKNBXe-118">
          <mxGeometry x="30" width="320" height="30" as="geometry">
            <mxRectangle width="320" height="30" as="alternateBounds" />
          </mxGeometry>
        </mxCell>
        <mxCell id="hYk6tkEReeOIZ_yKNBXe-121" value="" style="shape=partialRectangle;collapsible=0;dropTarget=0;pointerEvents=0;fillColor=none;points=[[0,0.5],[1,0.5]];portConstraint=eastwest;top=0;left=0;right=0;bottom=0;" vertex="1" parent="hYk6tkEReeOIZ_yKNBXe-117">
          <mxGeometry y="60" width="350" height="40" as="geometry" />
        </mxCell>
        <mxCell id="hYk6tkEReeOIZ_yKNBXe-122" value="" style="shape=partialRectangle;overflow=hidden;connectable=0;fillColor=none;top=0;left=0;bottom=0;right=0;" vertex="1" parent="hYk6tkEReeOIZ_yKNBXe-121">
          <mxGeometry width="30" height="40" as="geometry">
            <mxRectangle width="30" height="40" as="alternateBounds" />
          </mxGeometry>
        </mxCell>
        <mxCell id="hYk6tkEReeOIZ_yKNBXe-123" value="reg_type_name    VARCHAR(31)        NOT NULL UNIQUE" style="shape=partialRectangle;overflow=hidden;connectable=0;fillColor=none;top=0;left=0;bottom=0;right=0;align=left;spacingLeft=6;" vertex="1" parent="hYk6tkEReeOIZ_yKNBXe-121">
          <mxGeometry x="30" width="320" height="40" as="geometry">
            <mxRectangle width="320" height="40" as="alternateBounds" />
          </mxGeometry>
        </mxCell>
        <mxCell id="hYk6tkEReeOIZ_yKNBXe-124" value="" style="shape=partialRectangle;collapsible=0;dropTarget=0;pointerEvents=0;fillColor=none;points=[[0,0.5],[1,0.5]];portConstraint=eastwest;top=0;left=0;right=0;bottom=0;" vertex="1" parent="hYk6tkEReeOIZ_yKNBXe-117">
          <mxGeometry y="100" width="350" height="40" as="geometry" />
        </mxCell>
        <mxCell id="hYk6tkEReeOIZ_yKNBXe-125" value="" style="shape=partialRectangle;overflow=hidden;connectable=0;fillColor=none;top=0;left=0;bottom=0;right=0;" vertex="1" parent="hYk6tkEReeOIZ_yKNBXe-124">
          <mxGeometry width="30" height="40" as="geometry">
            <mxRectangle width="30" height="40" as="alternateBounds" />
          </mxGeometry>
        </mxCell>
        <mxCell id="hYk6tkEReeOIZ_yKNBXe-126" value="reg_type_desc    VARCHAR(120)" style="shape=partialRectangle;overflow=hidden;connectable=0;fillColor=none;top=0;left=0;bottom=0;right=0;align=left;spacingLeft=6;" vertex="1" parent="hYk6tkEReeOIZ_yKNBXe-124">
          <mxGeometry x="30" width="320" height="40" as="geometry">
            <mxRectangle width="320" height="40" as="alternateBounds" />
          </mxGeometry>
        </mxCell>
        <mxCell id="hYk6tkEReeOIZ_yKNBXe-127" value="" style="shape=partialRectangle;collapsible=0;dropTarget=0;pointerEvents=0;fillColor=none;points=[[0,0.5],[1,0.5]];portConstraint=eastwest;top=0;left=0;right=0;bottom=0;" vertex="1" parent="hYk6tkEReeOIZ_yKNBXe-117">
          <mxGeometry y="140" width="350" height="40" as="geometry" />
        </mxCell>
        <mxCell id="hYk6tkEReeOIZ_yKNBXe-128" value="FK1" style="shape=partialRectangle;overflow=hidden;connectable=0;fillColor=none;top=0;left=0;bottom=0;right=0;" vertex="1" parent="hYk6tkEReeOIZ_yKNBXe-127">
          <mxGeometry width="30" height="40" as="geometry">
            <mxRectangle width="30" height="40" as="alternateBounds" />
          </mxGeometry>
        </mxCell>
        <mxCell id="hYk6tkEReeOIZ_yKNBXe-129" value="app_key                INT UNSIGNED    NOT NULL" style="shape=partialRectangle;overflow=hidden;connectable=0;fillColor=none;top=0;left=0;bottom=0;right=0;align=left;spacingLeft=6;" vertex="1" parent="hYk6tkEReeOIZ_yKNBXe-127">
          <mxGeometry x="30" width="320" height="40" as="geometry">
            <mxRectangle width="320" height="40" as="alternateBounds" />
          </mxGeometry>
        </mxCell>
        <mxCell id="hYk6tkEReeOIZ_yKNBXe-130" value="" style="shape=partialRectangle;collapsible=0;dropTarget=0;pointerEvents=0;fillColor=none;points=[[0,0.5],[1,0.5]];portConstraint=eastwest;top=0;left=0;right=0;bottom=0;" vertex="1" parent="hYk6tkEReeOIZ_yKNBXe-117">
          <mxGeometry y="180" width="350" height="40" as="geometry" />
        </mxCell>
        <mxCell id="hYk6tkEReeOIZ_yKNBXe-131" value="FK2" style="shape=partialRectangle;overflow=hidden;connectable=0;fillColor=none;top=0;left=0;bottom=0;right=0;" vertex="1" parent="hYk6tkEReeOIZ_yKNBXe-130">
          <mxGeometry width="30" height="40" as="geometry">
            <mxRectangle width="30" height="40" as="alternateBounds" />
          </mxGeometry>
        </mxCell>
        <mxCell id="hYk6tkEReeOIZ_yKNBXe-132" value="default_role_key   INT UNSIGNED    NOT NULL" style="shape=partialRectangle;overflow=hidden;connectable=0;fillColor=none;top=0;left=0;bottom=0;right=0;align=left;spacingLeft=6;" vertex="1" parent="hYk6tkEReeOIZ_yKNBXe-130">
          <mxGeometry x="30" width="320" height="40" as="geometry">
            <mxRectangle width="320" height="40" as="alternateBounds" />
          </mxGeometry>
        </mxCell>
        <mxCell id="hYk6tkEReeOIZ_yKNBXe-133" value="" style="shape=partialRectangle;collapsible=0;dropTarget=0;pointerEvents=0;fillColor=none;points=[[0,0.5],[1,0.5]];portConstraint=eastwest;top=0;left=0;right=0;bottom=0;" vertex="1" parent="hYk6tkEReeOIZ_yKNBXe-117">
          <mxGeometry y="220" width="350" height="40" as="geometry" />
        </mxCell>
        <mxCell id="hYk6tkEReeOIZ_yKNBXe-134" value="" style="shape=partialRectangle;overflow=hidden;connectable=0;fillColor=none;top=0;left=0;bottom=0;right=0;" vertex="1" parent="hYk6tkEReeOIZ_yKNBXe-133">
          <mxGeometry width="30" height="40" as="geometry">
            <mxRectangle width="30" height="40" as="alternateBounds" />
          </mxGeometry>
        </mxCell>
        <mxCell id="hYk6tkEReeOIZ_yKNBXe-135" value="deleted_flag            CHAR(1)         NOT NULL" style="shape=partialRectangle;overflow=hidden;connectable=0;fillColor=none;top=0;left=0;bottom=0;right=0;align=left;spacingLeft=6;" vertex="1" parent="hYk6tkEReeOIZ_yKNBXe-133">
          <mxGeometry x="30" width="320" height="40" as="geometry">
            <mxRectangle width="320" height="40" as="alternateBounds" />
          </mxGeometry>
        </mxCell>
        <mxCell id="hYk6tkEReeOIZ_yKNBXe-139" style="edgeStyle=orthogonalEdgeStyle;rounded=0;orthogonalLoop=1;jettySize=auto;html=1;entryX=0.005;entryY=0.12;entryDx=0;entryDy=0;entryPerimeter=0;endSize=12;startSize=12;endArrow=ERone;endFill=0;startArrow=ERzeroToMany;startFill=0;" edge="1" parent="1" source="hYk6tkEReeOIZ_yKNBXe-127" target="hYk6tkEReeOIZ_yKNBXe-42">
          <mxGeometry relative="1" as="geometry">
            <Array as="points">
              <mxPoint x="450" y="220" />
              <mxPoint x="450" y="77" />
            </Array>
          </mxGeometry>
        </mxCell>
        <mxCell id="hYk6tkEReeOIZ_yKNBXe-140" style="edgeStyle=orthogonalEdgeStyle;rounded=0;orthogonalLoop=1;jettySize=auto;html=1;entryX=0;entryY=0.5;entryDx=0;entryDy=0;endArrow=ERone;endFill=0;startArrow=ERzeroToMany;startFill=0;endSize=12;startSize=12;" edge="1" parent="1" source="hYk6tkEReeOIZ_yKNBXe-130" target="hYk6tkEReeOIZ_yKNBXe-30">
          <mxGeometry relative="1" as="geometry" />
        </mxCell>
        <mxCell id="hYk6tkEReeOIZ_yKNBXe-141" value="user" style="shape=table;startSize=30;container=1;collapsible=1;childLayout=tableLayout;fixedRows=1;rowLines=0;fontStyle=1;align=center;resizeLast=1;" vertex="1" parent="1">
          <mxGeometry x="960" y="60" width="350" height="300" as="geometry" />
        </mxCell>
        <mxCell id="hYk6tkEReeOIZ_yKNBXe-142" value="" style="shape=partialRectangle;collapsible=0;dropTarget=0;pointerEvents=0;fillColor=none;points=[[0,0.5],[1,0.5]];portConstraint=eastwest;top=0;left=0;right=0;bottom=1;" vertex="1" parent="hYk6tkEReeOIZ_yKNBXe-141">
          <mxGeometry y="30" width="350" height="30" as="geometry" />
        </mxCell>
        <mxCell id="hYk6tkEReeOIZ_yKNBXe-143" value="PK" style="shape=partialRectangle;overflow=hidden;connectable=0;fillColor=none;top=0;left=0;bottom=0;right=0;fontStyle=1;" vertex="1" parent="hYk6tkEReeOIZ_yKNBXe-142">
          <mxGeometry width="30" height="30" as="geometry">
            <mxRectangle width="30" height="30" as="alternateBounds" />
          </mxGeometry>
        </mxCell>
        <mxCell id="hYk6tkEReeOIZ_yKNBXe-144" value="user_key            INT UNSIGNED        NOT NULL" style="shape=partialRectangle;overflow=hidden;connectable=0;fillColor=none;top=0;left=0;bottom=0;right=0;align=left;spacingLeft=6;fontStyle=1;" vertex="1" parent="hYk6tkEReeOIZ_yKNBXe-142">
          <mxGeometry x="30" width="320" height="30" as="geometry">
            <mxRectangle width="320" height="30" as="alternateBounds" />
          </mxGeometry>
        </mxCell>
        <mxCell id="hYk6tkEReeOIZ_yKNBXe-145" value="" style="shape=partialRectangle;collapsible=0;dropTarget=0;pointerEvents=0;fillColor=none;points=[[0,0.5],[1,0.5]];portConstraint=eastwest;top=0;left=0;right=0;bottom=0;" vertex="1" parent="hYk6tkEReeOIZ_yKNBXe-141">
          <mxGeometry y="60" width="350" height="40" as="geometry" />
        </mxCell>
        <mxCell id="hYk6tkEReeOIZ_yKNBXe-146" value="" style="shape=partialRectangle;overflow=hidden;connectable=0;fillColor=none;top=0;left=0;bottom=0;right=0;" vertex="1" parent="hYk6tkEReeOIZ_yKNBXe-145">
          <mxGeometry width="30" height="40" as="geometry">
            <mxRectangle width="30" height="40" as="alternateBounds" />
          </mxGeometry>
        </mxCell>
        <mxCell id="hYk6tkEReeOIZ_yKNBXe-147" value="username        VARCHAR(63)            NOT NULL UNIQUE" style="shape=partialRectangle;overflow=hidden;connectable=0;fillColor=none;top=0;left=0;bottom=0;right=0;align=left;spacingLeft=6;" vertex="1" parent="hYk6tkEReeOIZ_yKNBXe-145">
          <mxGeometry x="30" width="320" height="40" as="geometry">
            <mxRectangle width="320" height="40" as="alternateBounds" />
          </mxGeometry>
        </mxCell>
        <mxCell id="hYk6tkEReeOIZ_yKNBXe-148" value="" style="shape=partialRectangle;collapsible=0;dropTarget=0;pointerEvents=0;fillColor=none;points=[[0,0.5],[1,0.5]];portConstraint=eastwest;top=0;left=0;right=0;bottom=0;" vertex="1" parent="hYk6tkEReeOIZ_yKNBXe-141">
          <mxGeometry y="100" width="350" height="40" as="geometry" />
        </mxCell>
        <mxCell id="hYk6tkEReeOIZ_yKNBXe-149" value="" style="shape=partialRectangle;overflow=hidden;connectable=0;fillColor=none;top=0;left=0;bottom=0;right=0;" vertex="1" parent="hYk6tkEReeOIZ_yKNBXe-148">
          <mxGeometry width="30" height="40" as="geometry">
            <mxRectangle width="30" height="40" as="alternateBounds" />
          </mxGeometry>
        </mxCell>
        <mxCell id="hYk6tkEReeOIZ_yKNBXe-150" value="email                VARCHAR(63)            NOT NULL UNIQUE" style="shape=partialRectangle;overflow=hidden;connectable=0;fillColor=none;top=0;left=0;bottom=0;right=0;align=left;spacingLeft=6;" vertex="1" parent="hYk6tkEReeOIZ_yKNBXe-148">
          <mxGeometry x="30" width="320" height="40" as="geometry">
            <mxRectangle width="320" height="40" as="alternateBounds" />
          </mxGeometry>
        </mxCell>
        <mxCell id="hYk6tkEReeOIZ_yKNBXe-151" value="" style="shape=partialRectangle;collapsible=0;dropTarget=0;pointerEvents=0;fillColor=none;points=[[0,0.5],[1,0.5]];portConstraint=eastwest;top=0;left=0;right=0;bottom=0;" vertex="1" parent="hYk6tkEReeOIZ_yKNBXe-141">
          <mxGeometry y="140" width="350" height="40" as="geometry" />
        </mxCell>
        <mxCell id="hYk6tkEReeOIZ_yKNBXe-152" value="" style="shape=partialRectangle;overflow=hidden;connectable=0;fillColor=none;top=0;left=0;bottom=0;right=0;" vertex="1" parent="hYk6tkEReeOIZ_yKNBXe-151">
          <mxGeometry width="30" height="40" as="geometry">
            <mxRectangle width="30" height="40" as="alternateBounds" />
          </mxGeometry>
        </mxCell>
        <mxCell id="hYk6tkEReeOIZ_yKNBXe-153" value="password_hash             VARCHAR(63)     NOT NULL" style="shape=partialRectangle;overflow=hidden;connectable=0;fillColor=none;top=0;left=0;bottom=0;right=0;align=left;spacingLeft=6;" vertex="1" parent="hYk6tkEReeOIZ_yKNBXe-151">
          <mxGeometry x="30" width="320" height="40" as="geometry">
            <mxRectangle width="320" height="40" as="alternateBounds" />
          </mxGeometry>
        </mxCell>
        <mxCell id="hYk6tkEReeOIZ_yKNBXe-157" value="" style="shape=partialRectangle;collapsible=0;dropTarget=0;pointerEvents=0;fillColor=none;points=[[0,0.5],[1,0.5]];portConstraint=eastwest;top=0;left=0;right=0;bottom=0;" vertex="1" parent="hYk6tkEReeOIZ_yKNBXe-141">
          <mxGeometry y="180" width="350" height="40" as="geometry" />
        </mxCell>
        <mxCell id="hYk6tkEReeOIZ_yKNBXe-158" value="FK1" style="shape=partialRectangle;overflow=hidden;connectable=0;fillColor=none;top=0;left=0;bottom=0;right=0;" vertex="1" parent="hYk6tkEReeOIZ_yKNBXe-157">
          <mxGeometry width="30" height="40" as="geometry">
            <mxRectangle width="30" height="40" as="alternateBounds" />
          </mxGeometry>
        </mxCell>
        <mxCell id="hYk6tkEReeOIZ_yKNBXe-159" value="registration_type_key     INT UNSIGNED    NOT NULL" style="shape=partialRectangle;overflow=hidden;connectable=0;fillColor=none;top=0;left=0;bottom=0;right=0;align=left;spacingLeft=6;" vertex="1" parent="hYk6tkEReeOIZ_yKNBXe-157">
          <mxGeometry x="30" width="320" height="40" as="geometry">
            <mxRectangle width="320" height="40" as="alternateBounds" />
          </mxGeometry>
        </mxCell>
        <mxCell id="hYk6tkEReeOIZ_yKNBXe-160" value="" style="shape=partialRectangle;collapsible=0;dropTarget=0;pointerEvents=0;fillColor=none;points=[[0,0.5],[1,0.5]];portConstraint=eastwest;top=0;left=0;right=0;bottom=0;" vertex="1" parent="hYk6tkEReeOIZ_yKNBXe-141">
          <mxGeometry y="220" width="350" height="40" as="geometry" />
        </mxCell>
        <mxCell id="hYk6tkEReeOIZ_yKNBXe-161" value="" style="shape=partialRectangle;overflow=hidden;connectable=0;fillColor=none;top=0;left=0;bottom=0;right=0;" vertex="1" parent="hYk6tkEReeOIZ_yKNBXe-160">
          <mxGeometry width="30" height="40" as="geometry">
            <mxRectangle width="30" height="40" as="alternateBounds" />
          </mxGeometry>
        </mxCell>
        <mxCell id="hYk6tkEReeOIZ_yKNBXe-162" value="registration_datetime     DATETIME    NOT NULL" style="shape=partialRectangle;overflow=hidden;connectable=0;fillColor=none;top=0;left=0;bottom=0;right=0;align=left;spacingLeft=6;" vertex="1" parent="hYk6tkEReeOIZ_yKNBXe-160">
          <mxGeometry x="30" width="320" height="40" as="geometry">
            <mxRectangle width="320" height="40" as="alternateBounds" />
          </mxGeometry>
        </mxCell>
        <mxCell id="hYk6tkEReeOIZ_yKNBXe-163" value="" style="shape=partialRectangle;collapsible=0;dropTarget=0;pointerEvents=0;fillColor=none;points=[[0,0.5],[1,0.5]];portConstraint=eastwest;top=0;left=0;right=0;bottom=0;" vertex="1" parent="hYk6tkEReeOIZ_yKNBXe-141">
          <mxGeometry y="260" width="350" height="40" as="geometry" />
        </mxCell>
        <mxCell id="hYk6tkEReeOIZ_yKNBXe-164" value="" style="shape=partialRectangle;overflow=hidden;connectable=0;fillColor=none;top=0;left=0;bottom=0;right=0;" vertex="1" parent="hYk6tkEReeOIZ_yKNBXe-163">
          <mxGeometry width="30" height="40" as="geometry">
            <mxRectangle width="30" height="40" as="alternateBounds" />
          </mxGeometry>
        </mxCell>
        <mxCell id="hYk6tkEReeOIZ_yKNBXe-165" value="deleted_flag                    CHAR(1)             NOT NULL" style="shape=partialRectangle;overflow=hidden;connectable=0;fillColor=none;top=0;left=0;bottom=0;right=0;align=left;spacingLeft=6;" vertex="1" parent="hYk6tkEReeOIZ_yKNBXe-163">
          <mxGeometry x="30" width="320" height="40" as="geometry">
            <mxRectangle width="320" height="40" as="alternateBounds" />
          </mxGeometry>
        </mxCell>
        <mxCell id="hYk6tkEReeOIZ_yKNBXe-166" style="edgeStyle=orthogonalEdgeStyle;rounded=0;orthogonalLoop=1;jettySize=auto;html=1;entryX=1;entryY=0.5;entryDx=0;entryDy=0;startArrow=ERzeroToMany;startFill=0;endArrow=ERone;endFill=0;endSize=12;startSize=12;" edge="1" parent="1" source="hYk6tkEReeOIZ_yKNBXe-157" target="hYk6tkEReeOIZ_yKNBXe-118">
          <mxGeometry relative="1" as="geometry">
            <Array as="points">
              <mxPoint x="910" y="260" />
              <mxPoint x="910" y="40" />
              <mxPoint x="420" y="40" />
              <mxPoint x="420" y="105" />
            </Array>
          </mxGeometry>
        </mxCell>
        <mxCell id="hYk6tkEReeOIZ_yKNBXe-167" value="user_roles" style="shape=table;startSize=30;container=1;collapsible=1;childLayout=tableLayout;fixedRows=1;rowLines=0;fontStyle=1;align=center;resizeLast=1;" vertex="1" parent="1">
          <mxGeometry x="960" y="400" width="350" height="230" as="geometry" />
        </mxCell>
        <mxCell id="hYk6tkEReeOIZ_yKNBXe-171" value="" style="shape=partialRectangle;collapsible=0;dropTarget=0;pointerEvents=0;fillColor=none;points=[[0,0.5],[1,0.5]];portConstraint=eastwest;top=0;left=0;right=0;bottom=0;" vertex="1" parent="hYk6tkEReeOIZ_yKNBXe-167">
          <mxGeometry y="30" width="350" height="40" as="geometry" />
        </mxCell>
        <mxCell id="hYk6tkEReeOIZ_yKNBXe-172" value="FK1" style="shape=partialRectangle;overflow=hidden;connectable=0;fillColor=none;top=0;left=0;bottom=0;right=0;fontStyle=1" vertex="1" parent="hYk6tkEReeOIZ_yKNBXe-171">
          <mxGeometry width="30" height="40" as="geometry">
            <mxRectangle width="30" height="40" as="alternateBounds" />
          </mxGeometry>
        </mxCell>
        <mxCell id="hYk6tkEReeOIZ_yKNBXe-173" value="user_key             INT UNSIGNED NOT NULL" style="shape=partialRectangle;overflow=hidden;connectable=0;fillColor=none;top=0;left=0;bottom=0;right=0;align=left;spacingLeft=6;fontStyle=1" vertex="1" parent="hYk6tkEReeOIZ_yKNBXe-171">
          <mxGeometry x="30" width="320" height="40" as="geometry">
            <mxRectangle width="320" height="40" as="alternateBounds" />
          </mxGeometry>
        </mxCell>
        <mxCell id="hYk6tkEReeOIZ_yKNBXe-174" value="" style="shape=partialRectangle;collapsible=0;dropTarget=0;pointerEvents=0;fillColor=none;points=[[0,0.5],[1,0.5]];portConstraint=eastwest;top=0;left=0;right=0;bottom=0;" vertex="1" parent="hYk6tkEReeOIZ_yKNBXe-167">
          <mxGeometry y="70" width="350" height="40" as="geometry" />
        </mxCell>
        <mxCell id="hYk6tkEReeOIZ_yKNBXe-175" value="FK2" style="shape=partialRectangle;overflow=hidden;connectable=0;fillColor=none;top=0;left=0;bottom=0;right=0;fontStyle=1" vertex="1" parent="hYk6tkEReeOIZ_yKNBXe-174">
          <mxGeometry width="30" height="40" as="geometry">
            <mxRectangle width="30" height="40" as="alternateBounds" />
          </mxGeometry>
        </mxCell>
        <mxCell id="hYk6tkEReeOIZ_yKNBXe-176" value="role_key            INT UNSIGNED NOT NULL" style="shape=partialRectangle;overflow=hidden;connectable=0;fillColor=none;top=0;left=0;bottom=0;right=0;align=left;spacingLeft=6;fontStyle=1" vertex="1" parent="hYk6tkEReeOIZ_yKNBXe-174">
          <mxGeometry x="30" width="320" height="40" as="geometry">
            <mxRectangle width="320" height="40" as="alternateBounds" />
          </mxGeometry>
        </mxCell>
        <mxCell id="hYk6tkEReeOIZ_yKNBXe-177" value="" style="shape=partialRectangle;collapsible=0;dropTarget=0;pointerEvents=0;fillColor=none;points=[[0,0.5],[1,0.5]];portConstraint=eastwest;top=0;left=0;right=0;bottom=0;" vertex="1" parent="hYk6tkEReeOIZ_yKNBXe-167">
          <mxGeometry y="110" width="350" height="40" as="geometry" />
        </mxCell>
        <mxCell id="hYk6tkEReeOIZ_yKNBXe-178" value="" style="shape=partialRectangle;overflow=hidden;connectable=0;fillColor=none;top=0;left=0;bottom=0;right=0;" vertex="1" parent="hYk6tkEReeOIZ_yKNBXe-177">
          <mxGeometry width="30" height="40" as="geometry">
            <mxRectangle width="30" height="40" as="alternateBounds" />
          </mxGeometry>
        </mxCell>
        <mxCell id="hYk6tkEReeOIZ_yKNBXe-179" value="valid_from         DATETIME    NOT NULL" style="shape=partialRectangle;overflow=hidden;connectable=0;fillColor=none;top=0;left=0;bottom=0;right=0;align=left;spacingLeft=6;" vertex="1" parent="hYk6tkEReeOIZ_yKNBXe-177">
          <mxGeometry x="30" width="320" height="40" as="geometry">
            <mxRectangle width="320" height="40" as="alternateBounds" />
          </mxGeometry>
        </mxCell>
        <mxCell id="hYk6tkEReeOIZ_yKNBXe-180" value="" style="shape=partialRectangle;collapsible=0;dropTarget=0;pointerEvents=0;fillColor=none;points=[[0,0.5],[1,0.5]];portConstraint=eastwest;top=0;left=0;right=0;bottom=0;" vertex="1" parent="hYk6tkEReeOIZ_yKNBXe-167">
          <mxGeometry y="150" width="350" height="40" as="geometry" />
        </mxCell>
        <mxCell id="hYk6tkEReeOIZ_yKNBXe-181" value="" style="shape=partialRectangle;overflow=hidden;connectable=0;fillColor=none;top=0;left=0;bottom=0;right=0;" vertex="1" parent="hYk6tkEReeOIZ_yKNBXe-180">
          <mxGeometry width="30" height="40" as="geometry">
            <mxRectangle width="30" height="40" as="alternateBounds" />
          </mxGeometry>
        </mxCell>
        <mxCell id="hYk6tkEReeOIZ_yKNBXe-182" value="valid_to            DATETIME    NOT NULL" style="shape=partialRectangle;overflow=hidden;connectable=0;fillColor=none;top=0;left=0;bottom=0;right=0;align=left;spacingLeft=6;" vertex="1" parent="hYk6tkEReeOIZ_yKNBXe-180">
          <mxGeometry x="30" width="320" height="40" as="geometry">
            <mxRectangle width="320" height="40" as="alternateBounds" />
          </mxGeometry>
        </mxCell>
        <mxCell id="hYk6tkEReeOIZ_yKNBXe-183" value="" style="shape=partialRectangle;collapsible=0;dropTarget=0;pointerEvents=0;fillColor=none;points=[[0,0.5],[1,0.5]];portConstraint=eastwest;top=0;left=0;right=0;bottom=0;" vertex="1" parent="hYk6tkEReeOIZ_yKNBXe-167">
          <mxGeometry y="190" width="350" height="40" as="geometry" />
        </mxCell>
        <mxCell id="hYk6tkEReeOIZ_yKNBXe-184" value="" style="shape=partialRectangle;overflow=hidden;connectable=0;fillColor=none;top=0;left=0;bottom=0;right=0;" vertex="1" parent="hYk6tkEReeOIZ_yKNBXe-183">
          <mxGeometry width="30" height="40" as="geometry">
            <mxRectangle width="30" height="40" as="alternateBounds" />
          </mxGeometry>
        </mxCell>
        <mxCell id="hYk6tkEReeOIZ_yKNBXe-185" value="deleted_flag        CHAR(1)        NOT NULL" style="shape=partialRectangle;overflow=hidden;connectable=0;fillColor=none;top=0;left=0;bottom=0;right=0;align=left;spacingLeft=6;" vertex="1" parent="hYk6tkEReeOIZ_yKNBXe-183">
          <mxGeometry x="30" width="320" height="40" as="geometry">
            <mxRectangle width="320" height="40" as="alternateBounds" />
          </mxGeometry>
        </mxCell>
        <mxCell id="hYk6tkEReeOIZ_yKNBXe-189" style="edgeStyle=orthogonalEdgeStyle;rounded=0;orthogonalLoop=1;jettySize=auto;html=1;entryX=1;entryY=0.5;entryDx=0;entryDy=0;endSize=12;startSize=12;endArrow=ERone;endFill=0;startArrow=ERoneToMany;startFill=0;" edge="1" parent="1" source="hYk6tkEReeOIZ_yKNBXe-171" target="hYk6tkEReeOIZ_yKNBXe-142">
          <mxGeometry relative="1" as="geometry">
            <Array as="points">
              <mxPoint x="1380" y="450" />
              <mxPoint x="1380" y="105" />
            </Array>
          </mxGeometry>
        </mxCell>
        <mxCell id="hYk6tkEReeOIZ_yKNBXe-190" style="edgeStyle=orthogonalEdgeStyle;rounded=0;orthogonalLoop=1;jettySize=auto;html=1;exitX=0;exitY=0.5;exitDx=0;exitDy=0;entryX=1;entryY=0.5;entryDx=0;entryDy=0;endSize=12;startSize=12;endArrow=ERone;endFill=0;startArrow=ERzeroToMany;startFill=0;" edge="1" parent="1" source="hYk6tkEReeOIZ_yKNBXe-174" target="hYk6tkEReeOIZ_yKNBXe-30">
          <mxGeometry relative="1" as="geometry" />
        </mxCell>
      </root>
    </mxGraphModel>
  </diagram>
</mxfile>
